<svg id="scooter" xmlns="http://www.w3.org/2000/svg" width="511.999" height="490.321" viewBox="0 0 511.999 490.321">
  <path id="Path_19" data-name="Path 19" d="M113.521,360.094,164.683,335.8l25.952-12.314L135.024,187.048l-35.51-8.878S157.559,275.556,113.521,360.094Z" transform="translate(221.85 -10.839)" fill="#f8b40e"/>
  <path id="Path_20" data-name="Path 20" d="M445.187,330.5V268.1a8.9,8.9,0,0,1,8.9-8.9h25.78a8.9,8.9,0,0,1,8.9,8.9v22.49" transform="translate(-421.961 -10.839)" fill="#f2171c"/>
  <path id="Path_21" data-name="Path 21" d="M445.185,330.5v-71.3h10.57a8.9,8.9,0,0,1,8.9,8.9v22.49" transform="translate(-397.844 -10.839)" fill="#d8131e"/>
  <path id="Path_22" data-name="Path 22" d="M423.723,266.7a60.117,60.117,0,0,0,0,120.234l-42.032,22.542L240.415,394.449,225.812,266.7l190.446-15.029" transform="translate(-137.536 -10.839)" fill="#bf8104"/>
  <path id="Path_23" data-name="Path 23" d="M206.771,107.392H161.887a39.827,39.827,0,0,0-39.827,39.827h0a39.827,39.827,0,0,0,39.827,39.827h44.884a8.1,8.1,0,0,0,8.1-8.1V115.492A8.1,8.1,0,0,0,206.771,107.392Z" transform="translate(175.065 -10.839)" fill="#f8b40e"/>
  <path id="Path_24" data-name="Path 24" d="M161.887,170.8h52.987v8.149a8.1,8.1,0,0,1-8.1,8.1H161.887a39.827,39.827,0,0,1-39.827-39.827h0a39.99,39.99,0,0,1,.832-8.126A39.839,39.839,0,0,0,161.887,170.8Z" transform="translate(175.065 -10.839)" fill="#dd9b0a"/>
  <path id="Path_25" data-name="Path 25" d="M143.1,423.01H356.518V386.938H172.681" transform="translate(12.38 -10.839)" fill="#f8b40e"/>
  <circle id="Ellipse_5" data-name="Ellipse 5" cx="78.153" cy="78.153" r="78.153" transform="translate(18.713 334.015)" fill="#2c4046"/>
  <path id="Path_26" data-name="Path 26" d="M99.514,187.049,164.4,360.827l3.1-37.335L111.889,187.049Z" transform="translate(244.985 -10.839)" fill="#dd9b0a"/>
  <circle id="Ellipse_6" data-name="Ellipse 6" cx="42.763" cy="42.763" r="42.763" transform="translate(54.103 369.405)" fill="#9aa7b8"/>
  <circle id="Ellipse_7" data-name="Ellipse 7" cx="78.153" cy="78.153" r="78.153" transform="translate(334.325 334.015)" fill="#2c4046"/>
  <circle id="Ellipse_8" data-name="Ellipse 8" cx="42.763" cy="42.763" r="42.763" transform="translate(369.715 369.405)" fill="#9aa7b8"/>
  <path id="Path_27" data-name="Path 27" d="M99.515,473.63a50.682,50.682,0,0,0,50.629-50.619H134.417a34.9,34.9,0,0,1-69.8,0H48.885A50.682,50.682,0,0,0,99.515,473.63Z" transform="translate(312.97 -10.839)" fill="#1d2c30"/>
  <path id="Path_28" data-name="Path 28" d="M470.532,423.007a78.894,78.894,0,0,0-37.423-148.346c-42.056,0-125.023,22.236-131,135.166a12.476,12.476,0,0,0,12.43,13.181h156Z" transform="translate(-302.087 -10.839)" fill="#f8b40e"/>
  <path id="Path_29" data-name="Path 29" d="M426.3,365.575a78.861,78.861,0,0,0-78.89-78.89,141.79,141.79,0,0,0-45.323,7.724c24.748-15.239,51.951-19.748,70.873-19.748a78.9,78.9,0,0,1,37.423,148.347H401.5A78.652,78.652,0,0,0,426.3,365.575Z" transform="translate(-241.938 -10.839)" fill="#dd9b0a"/>
  <path id="Path_30" data-name="Path 30" d="M0,423.007a99.516,99.516,0,0,1,199.033,0Z" transform="translate(312.966 -10.839)" fill="#f8b40e"/>
  <path id="Path_31" data-name="Path 31" d="M0,324.866a99.56,99.56,0,0,1,116.044,98.141H82.99A99.537,99.537,0,0,0,0,324.866Z" transform="translate(395.955 -10.839)" fill="#dd9b0a"/>
  <path id="Path_32" data-name="Path 32" d="M415.132,473.635a50.684,50.684,0,0,0,50.627-50.627H450.032a34.9,34.9,0,1,1-69.8,0H364.505A50.685,50.685,0,0,0,415.132,473.635Z" transform="translate(-318.265 -10.839)" fill="#1d2c30"/>
  <path id="Path_33" data-name="Path 33" d="M122.06,107.392H138a8.1,8.1,0,0,1,8.1,8.1v63.451a8.1,8.1,0,0,1-8.1,8.1H122.06Z" transform="translate(243.832 -10.839)" fill="#a0d9f2"/>
  <path id="Path_34" data-name="Path 34" d="M122.06,170.8h24.047v8.149a8.1,8.1,0,0,1-8.1,8.1H122.06Z" transform="translate(243.832 -10.839)" fill="#84bed3"/>
  <path id="Path_35" data-name="Path 35" d="M239.567,222.411,392.5,233.2a33.582,33.582,0,0,1,31.218,33.5H210.732V249.284A26.937,26.937,0,0,1,239.567,222.411Z" transform="translate(-122.455 -10.839)" fill="#444d56"/>
  <rect id="Rectangle_3" data-name="Rectangle 3" width="15.727" height="77.22" transform="translate(312.369 54.617)" fill="#d3d3d3"/>
  <g id="Group_15" data-name="Group 15" transform="translate(51.932 310.794)">
    <path id="Path_36" data-name="Path 36" d="M375.554,337.361H452.2a7.864,7.864,0,1,0,0-15.728H375.554a7.864,7.864,0,1,0,0,15.728Z" transform="translate(-367.69 -321.633)" fill="#dd9b0a"/>
    <path id="Path_37" data-name="Path 37" d="M375.554,362.73h56.608a7.864,7.864,0,1,0,0-15.728H375.554a7.864,7.864,0,0,0,0,15.728Z" transform="translate(-347.649 -321.633)" fill="#dd9b0a"/>
    <path id="Path_38" data-name="Path 38" d="M375.554,387.781h36.567a7.864,7.864,0,0,0,0-15.728H375.554a7.864,7.864,0,1,0,0,15.728Z" transform="translate(-327.608 -321.633)" fill="#dd9b0a"/>
  </g>
  <circle id="Ellipse_9" data-name="Ellipse 9" cx="23.108" cy="23.108" r="23.108" transform="translate(297.125 113.269)" fill="#444d56"/>
  <path id="Path_39" data-name="Path 39" d="M191.763,84.029h0a14.278,14.278,0,0,0,14.278-14.278V25.117a14.278,14.278,0,0,0-14.278-14.278h0a14.278,14.278,0,0,0-14.278,14.278V69.75A14.278,14.278,0,0,0,191.763,84.029Z" transform="translate(128.473 -10.839)" fill="#e6e6e6"/>
</svg>
